<?xml version="1.0" standalone="no"?>
<!DOCTYPE svg PUBLIC "-//W3C//DTD SVG 20010904//EN" "http://www.w3.org/TR/2001/REC-SVG-20010904/DTD/svg10.dtd">
<!-- Created using Krita: https://krita.org -->
<svg xmlns="http://www.w3.org/2000/svg" 
    xmlns:xlink="http://www.w3.org/1999/xlink"
    xmlns:krita="http://krita.org/namespaces/svg/krita"
    xmlns:sodipodi="http://sodipodi.sourceforge.net/DTD/sodipodi-0.dtd"
    width="32.88pt"
    height="24.96pt"
    viewBox="0 0 32.88 24.96">
<defs>
  <linearGradient id="gradient0" gradientUnits="objectBoundingBox" x1="0.197467684288992" y1="0.0860518176878139" x2="0.74463431913567" y2="0.942064428332158" spreadMethod="pad">
   <stop stop-color="#34a8d5" offset="0" stop-opacity="1"/>
   <stop stop-color="#7bcbb6" offset="1" stop-opacity="1"/>
  </linearGradient>
 </defs>
<g id="group0" transform="matrix(0.24 0 0 0.24 0 0)" fill="none">
  <g id="LOGO" fill="none">
   <path id="TEXT" transform="translate(147.077811285731, 44.012146)" fill="#040003" stroke-opacity="0" stroke="#000000" stroke-width="0" stroke-linecap="square" stroke-linejoin="bevel" d="M47.5556 28.3604L47.5556 50.146C44.921 52.1095 41.9679 53.6046 38.8258 54.5656C35.6016 55.5162 32.2546 55.9846 28.8934 55.9555C24.824 56.0169 20.7785 55.3233 16.962 53.9097C13.5744 52.6293 10.4822 50.6741 7.87298 48.1626C5.34208 45.6982 3.35746 42.7292 2.04786 39.4484C0.659174 35.9292 -0.0355283 32.1746 0.00203871 28.3916C-0.0419223 24.5847 0.625422 20.803 1.96978 17.2411C4.4488 10.6004 9.68377 5.35977 16.3217 2.87352C20.0404 1.48254 23.9865 0.799262 27.9564 0.858939C30.0083 0.847571 32.0571 1.02005 34.0782 1.3743C35.8809 1.70034 37.6521 2.18104 39.3723 2.81105C40.9297 3.39197 42.4215 4.13527 43.8232 5.02866C45.1504 5.89091 46.3994 6.86812 47.5556 7.94903L44.6821 12.4936C44.3115 13.1591 43.6757 13.6359 42.933 13.8054C42.1126 13.9477 41.2693 13.7566 40.5905 13.2744L38.1854 11.8533C37.3141 11.3593 36.3993 10.9464 35.4525 10.6195C34.3466 10.2506 33.2135 9.96861 32.0636 9.77621C30.6299 9.52967 29.1767 9.41467 27.7221 9.43263C25.257 9.39876 22.8098 9.8553 20.5227 10.7757C18.4253 11.6276 16.5465 12.9406 15.0255 14.6175C13.4599 16.3549 12.2691 18.3963 11.5273 20.6144C10.6731 23.1276 10.2559 25.7686 10.2936 28.4228C10.2463 31.2282 10.6957 34.0198 11.6211 36.6686C12.4148 38.9575 13.6811 41.054 15.3379 42.8216C16.9539 44.4869 18.9157 45.777 21.0849 46.6009C25.2181 48.0945 29.7003 48.3335 33.9689 47.2881C35.5482 46.8625 37.0852 46.2927 38.5603 45.5858L38.5603 35.8877L31.7669 35.8877C31.1923 35.9355 30.6245 35.7368 30.2052 35.3411C29.8464 34.9939 29.6484 34.5129 29.6586 34.0137L29.6586 28.3604L47.5556 28.3604ZM63.9065 23.7846C64.9279 21.71 66.3754 19.8741 68.1544 18.3968C69.8033 17.0873 71.8587 16.3966 73.9638 16.4446C75.467 16.365 76.956 16.7701 78.2116 17.6003L77.6182 24.4874C77.5414 24.8512 77.3563 25.1833 77.0872 25.44C76.8087 25.6349 76.4743 25.7336 76.1346 25.7211C75.5787 25.7023 75.0252 25.6397 74.4792 25.5337C73.7674 25.4107 73.0464 25.348 72.3241 25.3463C71.3995 25.33 70.4795 25.4781 69.6067 25.7836C68.8198 26.0801 68.0944 26.5196 67.4672 27.0798C66.8102 27.6676 66.2467 28.3522 65.7962 29.11C65.272 29.9783 64.8177 30.887 64.4375 31.8273L64.4375 55.362L55.3641 55.362L55.3641 17.1474L60.7519 17.1474C61.451 17.079 62.1521 17.2557 62.7353 17.6471C63.1832 18.1486 63.4475 18.7874 63.4849 19.4587ZM110.773 25.3463C110.185 23.6069 109.238 22.0106 107.993 20.6612C106.75 19.3064 105.226 18.2402 103.527 17.5378C101.62 16.7798 99.5814 16.4083 97.5298 16.4446C91.6537 16.3151 85.9578 18.477 81.6474 22.4728L83.4589 25.4088C83.736 25.8718 84.1023 26.2753 84.5365 26.5956C85.0128 26.939 85.5894 27.1147 86.1763 27.0954C86.8886 27.1054 87.5903 26.9219 88.2065 26.5644L90.2367 25.3931C91.0558 24.9205 91.9188 24.5283 92.8135 24.2219C94.0154 23.8459 95.2714 23.6718 96.5303 23.7065C98.287 23.6016 100.001 24.2757 101.215 25.5493C102.437 27.1807 103.02 29.2025 102.855 31.2339L102.855 33.4827C100.241 33.5181 97.6319 33.7321 95.0467 34.123C93.0274 34.4236 91.037 34.8938 89.0967 35.5286C87.58 36.0014 86.1351 36.6791 84.802 37.5431C83.7344 38.2161 82.7715 39.0421 81.9441 39.995C81.2535 40.7977 80.7233 41.7255 80.3824 42.728C80.0626 43.6577 79.899 44.6339 79.8982 45.6171C79.8639 47.1607 80.1401 48.6955 80.7104 50.1304C81.2225 51.371 82.0134 52.4772 83.0217 53.363C84.0534 54.2587 85.2609 54.929 86.5667 55.3308C88.0149 55.7674 89.5206 55.9833 91.0331 55.9711C92.2909 55.9827 93.5466 55.8675 94.7812 55.6275C95.8547 55.3909 96.9012 55.0456 97.9046 54.5968C98.9088 54.1393 99.866 53.5849 100.763 52.9414C101.753 52.2316 102.702 51.4651 103.605 50.6457L104.417 53.4099C104.586 54.0514 104.987 54.6078 105.541 54.9716C106.164 55.2669 106.852 55.4011 107.54 55.3621L111.726 55.3621L111.726 31.3119C111.743 29.2842 111.421 27.2678 110.773 25.3463ZM102.73 45.4765C101.572 46.7433 100.204 47.8 98.6855 48.5999C97.1528 49.3185 95.4741 49.6713 93.7817 49.6306C92.4572 49.6942 91.1478 49.3271 90.0493 48.5843C88.4535 47.1013 88.1447 44.6901 89.3153 42.8528C89.9165 42.0432 90.7261 41.4117 91.6578 41.0257C93.0472 40.4079 94.5123 39.9772 96.0149 39.7451C98.2347 39.3581 100.478 39.1233 102.73 39.0424L102.73 45.4765ZM144.334 0.015625L144.334 20.1771C143.149 19.0412 141.775 18.1215 140.273 17.4597C138.536 16.7484 136.669 16.408 134.792 16.4603C132.442 16.4446 130.12 16.9795 128.014 18.022C126.006 19.0292 124.242 20.463 122.845 22.2229C121.356 24.0793 120.228 26.1981 119.518 28.4697C118.732 31.0292 118.342 33.6942 118.363 36.3718C118.324 39.1857 118.67 41.9916 119.394 44.7113C119.978 46.889 120.963 48.9386 122.298 50.755C124.678 54.0134 128.493 55.9121 132.527 55.8461C134.949 55.9245 137.351 55.3871 139.508 54.2845C141.517 53.1834 143.315 51.7346 144.818 50.0054L145.599 53.691C145.844 54.747 146.83 55.4603 147.91 55.3621L153.532 55.3621L153.532 0ZM144.381 44.0397C143.318 45.3892 142.022 46.537 140.555 47.4286C139.064 48.2624 137.373 48.6728 135.666 48.6155C134.556 48.6345 133.453 48.4162 132.434 47.9752C131.429 47.5118 130.574 46.776 129.966 45.8513C129.214 44.6891 128.684 43.3969 128.404 42.0408C128.017 40.1769 127.839 38.2754 127.874 36.3718C127.84 34.4324 128.049 32.4963 128.498 30.6092C128.836 29.1637 129.457 27.7996 130.325 26.5956C131.085 25.5722 132.089 24.756 133.246 24.2219C134.428 23.6896 135.713 23.4231 137.009 23.441C138.37 23.4344 139.719 23.6999 140.976 24.2219C142.307 24.8357 143.474 25.7562 144.381 26.908L144.381 44.0397ZM171.976 0.015625L171.976 55.362L162.777 55.362L162.777 0.015625ZM209.238 45.4609C208.615 45.4774 208.007 45.655 207.473 45.9763C206.911 46.3198 206.161 46.7103 205.349 47.1319C204.441 47.5966 203.496 47.9832 202.522 48.2875C201.27 48.6546 199.97 48.8284 198.665 48.8029C197.276 48.8256 195.894 48.5927 194.589 48.1158C193.405 47.6672 192.337 46.9572 191.466 46.0387C190.512 45.0169 189.779 43.8104 189.311 42.4937C188.714 40.8572 188.361 39.1417 188.264 37.4026L211.908 37.387C212.568 37.4724 213.223 37.1983 213.626 36.6686C214.002 35.7819 214.157 34.8174 214.079 33.8575C214.12 31.3495 213.697 28.8556 212.83 26.502C212.076 24.467 210.899 22.6148 209.378 21.0673C207.896 19.5741 206.105 18.4229 204.131 17.694C201.998 16.9025 199.737 16.5107 197.463 16.5383C194.816 16.5234 192.195 17.0551 189.763 18.1C187.584 19.036 185.622 20.4132 184.001 22.1448C182.4 23.8812 181.163 25.9202 180.362 28.1417C179.508 30.4993 179.08 32.9899 179.097 35.4973C179.039 38.5126 179.532 41.5132 180.549 44.3521C181.421 46.7381 182.777 48.918 184.532 50.7551C186.215 52.4724 188.25 53.8044 190.497 54.6593C192.865 55.5633 195.381 56.0136 197.915 55.9867C199.3 55.9857 200.683 55.8865 202.054 55.69C203.49 55.4871 204.903 55.1418 206.27 54.6592C207.663 54.1699 208.995 53.52 210.237 52.7228C211.525 51.906 212.679 50.8945 213.657 49.7243L210.956 46.3198C210.582 45.7422 209.924 45.4131 209.238 45.4609ZM191.341 25.4088C193.031 23.8403 195.285 23.0234 197.587 23.1443C198.82 23.1214 200.043 23.3554 201.179 23.8314C202.162 24.2563 203.034 24.9031 203.725 25.7211C204.424 26.5298 204.955 27.4695 205.287 28.4853C205.627 29.5774 205.801 30.7146 205.802 31.8586L188.42 31.8586C188.666 29.4482 189.691 27.1837 191.341 25.4088Z" sodipodi:nodetypes="ccccccccccccccccccccccccccccccccccccccccccccccccccccccccccccccccccccccccccccccccccccccccccccccccccccccccccccccccccccccccccccccccccccccccccccccccccccccccccccccccccccccccccccccccccc"/>
   <path id="ICON" transform="translate(1.94155385267161e-05, -7.09199376735286e-06)" fill="url(#gradient0)" stroke-opacity="0" stroke="#000000" stroke-width="0" stroke-linecap="square" stroke-linejoin="bevel" d="M127.887 6.28163C119.715 -1.89599 106.53 -2.11712 98.0896 5.78193C97.6833 6.15583 97.4512 6.68214 97.4492 7.23426C97.4378 7.78883 97.6519 8.32423 98.0427 8.7179L100.744 11.4196C101.465 12.1367 102.602 12.2165 103.415 11.607C105.533 10.0084 108.117 9.14722 110.77 9.15516C117.558 9.15504 123.061 14.6576 123.061 21.4455C123.061 24.7014 121.769 27.8243 119.469 30.1287C102.493 47.198 79.7084 -0.496085 28.157 24.0381C24.6526 25.6659 23.1313 29.8264 24.7591 33.3308C24.843 33.5114 24.9345 33.6884 25.0335 33.8612L33.8727 49.1502C35.7918 52.4601 40.01 53.6206 43.3522 51.7582L43.5708 51.6332L43.3991 51.7582L47.3189 49.5562C51.6914 46.8481 55.8242 43.7707 59.6719 40.3578C60.4538 39.6285 61.6541 39.5885 62.4829 40.2641C63.3454 40.967 63.4748 42.236 62.772 43.0985C62.6857 43.2044 62.5888 43.3012 62.4829 43.3875C58.4679 47.0034 54.1466 50.2639 49.5677 53.1325L49.4272 53.2105L45.5074 55.3969C43.8551 56.3333 41.9874 56.8231 40.0883 56.8181C36.0829 56.828 32.3755 54.7035 30.3589 51.2428L21.9883 36.8128C5.93405 48.1506 -3.81094 69.9987 1.42075 97.6407C1.60806 98.6044 2.45358 99.2991 3.43533 99.2961L12.946 99.2961C14.0002 99.3365 14.9096 98.5628 15.0387 97.5158C16.0354 89.8697 23.0417 84.4793 30.6878 85.476C36.967 86.2946 41.909 91.2366 42.7275 97.5158C42.852 98.5208 43.6982 99.2804 44.7108 99.2961L53.9873 99.2961C55.0152 99.2969 55.8841 98.535 56.0175 97.5158C56.98 89.874 63.9551 84.4594 71.5969 85.4219C77.9171 86.218 82.8947 91.1955 83.6908 97.5158C83.8169 98.5325 84.6807 99.296 85.7053 99.2961L94.8725 99.2961C95.9817 99.2962 96.8856 98.4062 96.9027 97.2971C97.1213 84.3663 100.604 69.5146 110.552 62.0809C144.893 36.3442 135.851 14.2775 127.887 6.28163ZM92.7954 45.2147L92.7954 45.199L86.2363 41.9039C86.2279 39.6269 88.0669 37.7742 90.3438 37.7658C92.6209 37.7573 94.4735 39.5963 94.482 41.8733C94.4868 43.1928 93.8599 44.4349 92.7954 45.2147Z" sodipodi:nodetypes="ccccccccccccccccccccccccccccccccccccccccccccccccc"/>
  </g>
 </g>
</svg>
